<svg width="32" height="32" viewBox="0 0 32 32" fill="none" xmlns="http://www.w3.org/2000/svg">
<path d="M26.8623 6.91395C24.8812 6.00694 22.7898 5.36348 20.6414 5C20.3474 5.52554 20.0814 6.06624 19.8445 6.61986C17.5561 6.27502 15.229 6.27502 12.9406 6.61986C12.7035 6.0663 12.4375 5.5256 12.1437 5C9.99395 5.36655 7.90112 6.01154 5.91801 6.91869C1.98101 12.7435 0.913755 18.4237 1.44738 24.0233C3.75299 25.7267 6.33361 27.0223 9.07709 27.8535C9.69483 27.0227 10.2415 26.1412 10.7112 25.2186C9.81903 24.8854 8.95795 24.4743 8.1379 23.9901C8.35372 23.8335 8.5648 23.6723 8.76877 23.5157C11.1549 24.6379 13.7593 25.2197 16.3961 25.2197C19.0329 25.2197 21.6373 24.6379 24.0234 23.5157C24.2298 23.6841 24.4408 23.8454 24.6543 23.9901C23.8327 24.4751 22.97 24.887 22.0763 25.221C22.5454 26.1432 23.0921 27.0239 23.7104 27.8535C26.4562 27.0256 29.0388 25.7307 31.3448 24.0256C31.9709 17.532 30.2752 11.904 26.8623 6.91395ZM11.3871 20.5796C9.90006 20.5796 8.67153 19.2301 8.67153 17.5699C8.67153 15.9097 9.85737 14.5484 11.3824 14.5484C12.9074 14.5484 14.1264 15.9097 14.1003 17.5699C14.0742 19.2301 12.9026 20.5796 11.3871 20.5796ZM21.4051 20.5796C19.9157 20.5796 18.6919 19.2301 18.6919 17.5699C18.6919 15.9097 19.8777 14.5484 21.4051 14.5484C22.9325 14.5484 24.142 15.9097 24.1159 17.5699C24.0898 19.2301 22.9206 20.5796 21.4051 20.5796Z" fill="white"/>
</svg>
