<svg width="220" height="44" viewBox="0 0 220 44" fill="none" xmlns="http://www.w3.org/2000/svg">
<path d="M9.01282 10.4423V30.3462L6.74231 28.1346H23.3436V32.5577H4V10.4423H9.01282Z" fill="white"/>
<path d="M37.4064 33C34.8312 33 32.5705 32.5184 30.6244 31.5551C28.6979 30.5919 27.194 29.2551 26.1128 27.5449C25.0317 25.815 24.4911 23.8 24.4911 21.5C24.4911 19.2 25.0317 17.1949 26.1128 15.4846C27.194 13.7547 28.6979 12.4081 30.6244 11.4449C32.5705 10.4816 34.8312 10 37.4064 10C39.9817 10 42.2325 10.4816 44.159 11.4449C46.1052 12.4081 47.6188 13.7547 48.7 15.4846C49.7812 17.1949 50.3218 19.2 50.3218 21.5C50.3218 23.8 49.7812 25.815 48.7 27.5449C47.6188 29.2551 46.1052 30.5919 44.159 31.5551C42.2325 32.5184 39.9817 33 37.4064 33ZM37.4064 28.5474C39.0184 28.5474 40.4043 28.2624 41.5641 27.6923C42.7436 27.1222 43.6479 26.3064 44.277 25.2449C44.9257 24.1833 45.25 22.935 45.25 21.5C45.25 20.065 44.9257 18.8167 44.277 17.7551C43.6479 16.6936 42.7436 15.8778 41.5641 15.3077C40.4043 14.7376 39.0184 14.4526 37.4064 14.4526C35.8141 14.4526 34.4282 14.7376 33.2487 15.3077C32.0693 15.8778 31.1552 16.6936 30.5064 17.7551C29.8774 18.8167 29.5629 20.065 29.5629 21.5C29.5629 22.935 29.8774 24.1833 30.5064 25.2449C31.1552 26.3064 32.0693 27.1222 33.2487 27.6923C34.4282 28.2624 35.8141 28.5474 37.4064 28.5474Z" fill="white"/>
<path d="M76.7439 22.9744C76.7243 24.3111 76.4589 25.5889 75.9478 26.8077C75.4563 28.0068 74.7486 29.0782 73.8247 30.0218C72.9008 30.9457 71.7606 31.6731 70.4042 32.2038C69.0478 32.7346 67.4751 33 65.6863 33C63.9563 33 62.3345 32.7444 60.8209 32.2333C59.3269 31.7026 58.0098 30.9457 56.8696 29.9628C55.7491 28.9799 54.8743 27.7808 54.2452 26.3654C53.6162 24.9303 53.3016 23.3085 53.3016 21.5C53.3016 19.6915 53.6162 18.0795 54.2452 16.6641C54.8939 15.2291 55.7884 14.0201 56.9286 13.0372C58.0687 12.0543 59.4055 11.3073 60.9388 10.7962C62.4722 10.2654 64.1431 10 65.9516 10C68.3106 10 70.3551 10.3735 72.085 11.1205C73.8149 11.8479 75.2106 12.8603 76.2722 14.1577C77.3533 15.4551 78.0217 16.9393 78.2773 18.6103H73.235C73.0384 17.706 72.6059 16.9295 71.9375 16.2808C71.2888 15.6321 70.4533 15.1308 69.4311 14.7769C68.4286 14.4231 67.2687 14.2462 65.9516 14.2462C64.3987 14.2462 63.0521 14.5312 61.9119 15.1013C60.7914 15.6517 59.9166 16.4675 59.2875 17.5487C58.6781 18.6299 58.3734 19.947 58.3734 21.5C58.3734 23.053 58.6978 24.3799 59.3465 25.4808C59.9952 26.5816 60.9192 27.4269 62.1183 28.0167C63.3174 28.5868 64.7328 28.8718 66.3645 28.8718C67.9568 28.8718 69.3525 28.6261 70.5516 28.1346C71.7508 27.6235 72.6944 26.9158 73.3824 26.0115C74.0901 25.0876 74.4931 23.9966 74.5914 22.7385L76.7439 22.9744ZM67.0427 25.009V21.3821H78.5132V32.5577H74.9157L74.2375 23.5936L75.2696 25.009H67.0427Z" fill="white"/>
<path d="M94.9398 33C92.3646 33 90.1039 32.5184 88.1578 31.5551C86.2313 30.5919 84.7274 29.2551 83.6462 27.5449C82.565 25.815 82.0245 23.8 82.0245 21.5C82.0245 19.2 82.565 17.1949 83.6462 15.4846C84.7274 13.7547 86.2313 12.4081 88.1578 11.4449C90.1039 10.4816 92.3646 10 94.9398 10C97.5151 10 99.7659 10.4816 101.692 11.4449C103.639 12.4081 105.152 13.7547 106.233 15.4846C107.315 17.1949 107.855 19.2 107.855 21.5C107.855 23.8 107.315 25.815 106.233 27.5449C105.152 29.2551 103.639 30.5919 101.692 31.5551C99.7659 32.5184 97.5151 33 94.9398 33ZM94.9398 28.5474C96.5518 28.5474 97.9377 28.2624 99.0975 27.6923C100.277 27.1222 101.181 26.3064 101.81 25.2449C102.459 24.1833 102.783 22.935 102.783 21.5C102.783 20.065 102.459 18.8167 101.81 17.7551C101.181 16.6936 100.277 15.8778 99.0975 15.3077C97.9377 14.7376 96.5518 14.4526 94.9398 14.4526C93.3475 14.4526 91.9616 14.7376 90.7821 15.3077C89.6027 15.8778 88.6886 16.6936 88.0398 17.7551C87.4108 18.8167 87.0962 20.065 87.0962 21.5C87.0962 22.935 87.4108 24.1833 88.0398 25.2449C88.6886 26.3064 89.6027 27.1222 90.7821 27.6923C91.9616 28.2624 93.3475 28.5474 94.9398 28.5474Z" fill="white"/>
<path d="M120.031 10.4423H125.044V32.5577H120.031V10.4423ZM137.723 10.4423H142.736V32.5577H137.723V10.4423ZM122.773 19.1705H139.935V23.5641H122.773V19.1705Z" fill="white"/>
<path d="M166.144 19.5833V23.4167H150.309V19.5833H166.144ZM153.671 21.5L152.196 30.8769L150.014 28.4H167.058V32.5577H147.154L148.864 21.5L147.154 10.4423H166.91V14.6H150.014L152.196 12.1231L153.671 21.5Z" fill="white"/>
<path d="M174.939 20.2615H183.461C184.581 20.2615 185.466 20.006 186.115 19.4949C186.783 18.9641 187.117 18.2368 187.117 17.3128C187.117 16.3889 186.783 15.6714 186.115 15.1603C185.466 14.6491 184.581 14.3936 183.461 14.3936H174.202L176.472 11.8282V32.5577H171.46V10.4423H184.051C185.663 10.4423 187.078 10.7372 188.297 11.3269C189.516 11.897 190.469 12.6932 191.157 13.7154C191.845 14.7376 192.189 15.9368 192.189 17.3128C192.189 18.6692 191.845 19.8585 191.157 20.8808C190.469 21.903 189.516 22.709 188.297 23.2987C187.078 23.8688 185.663 24.1538 184.051 24.1538H174.939V20.2615ZM178.772 22.2077H184.493L192.838 32.5577H186.97L178.772 22.2077Z" fill="white"/>
<path d="M214.808 19.5833V23.4167H198.973V19.5833H214.808ZM202.335 21.5L200.861 30.8769L198.679 28.4H215.722V32.5577H195.818L197.529 21.5L195.818 10.4423H215.575V14.6H198.679L200.861 12.1231L202.335 21.5Z" fill="white"/>
</svg>
