<svg width="80" height="81" viewBox="0 0 80 81" fill="none" xmlns="http://www.w3.org/2000/svg">
<g clip-path="url(#clip0_11_45)">
<path d="M56.776 63.3031L62.2964 57.7828C60.7466 56.3009 58.2127 53.8009 57.5679 52.7714C56.267 50.7126 57.6697 49.1629 59.4344 47.3982L67.8281 39.0045L74.4457 45.6221L80 40.0678L73.3824 33.4502L80 26.8326L72.9412 19.7737L52.2398 40.4751C47.681 45.0339 44.9435 48.7895 48.3597 54.1289C50.4978 57.4886 54.3213 60.8597 56.776 63.3031Z" fill="white"/>
<path d="M23.224 17.0363L17.7036 22.5567C19.2534 24.0386 21.7873 26.5386 22.4321 27.568C23.733 29.6268 22.3303 31.1766 20.5656 32.9413L12.1719 41.3349L5.55429 34.7173L0 40.2716L6.61764 46.8892L0 53.5069L7.05882 60.5657L27.7602 39.8643C32.319 35.3055 35.0565 31.5499 31.6402 26.2105C29.5022 22.8508 25.6787 19.4798 23.224 17.0363Z" fill="white"/>
<path d="M16.8666 57.0363L22.3869 62.5567C23.8688 61.0069 26.3688 58.473 27.3982 57.8282C29.4571 56.5273 31.0068 57.93 32.7715 59.6947L41.1652 68.0883L34.5476 74.706L40.1018 80.2603L46.7195 73.6426L53.3371 80.2603L60.3959 73.2015L39.6946 52.5001C35.1358 47.9413 31.3801 45.2038 26.0408 48.62C22.6811 50.758 19.31 54.5816 16.8666 57.0363Z" fill="white"/>
<path d="M63.2127 23.224L57.6925 17.7036C56.2106 19.2534 53.7105 21.7873 52.6811 22.4321C50.6222 23.733 49.0725 22.3303 47.3078 20.5656L38.9142 12.1719L45.5317 5.55429L39.9888 0L33.3712 6.61764L26.7423 0L19.6833 7.05882L40.3848 27.7602C44.9436 32.319 48.6993 35.0565 54.0386 31.6402C57.3983 29.5022 60.7693 25.6787 63.2127 23.224Z" fill="white"/>
</g>
<defs>
<clipPath id="clip0_11_45">
<rect width="80" height="81" fill="white"/>
</clipPath>
</defs>
</svg>
