<svg width="32" height="32" viewBox="0 0 32 32" fill="none" xmlns="http://www.w3.org/2000/svg">
<path d="M5.325 9.53833C5.36 9.18833 5.22 8.85 4.96333 8.61667L2.35 5.46667V5H10.47L16.7467 18.7667L22.265 5H30V5.46667L27.76 7.61333C27.5617 7.765 27.4683 7.99833 27.515 8.24333V23.9933C27.48 24.2267 27.5733 24.4717 27.76 24.6233L29.9417 26.77V27.2367H18.9633V26.77L21.2267 24.5767C21.4483 24.355 21.4483 24.285 21.4483 23.9467V11.2067L15.16 27.1783H14.3083L6.99333 11.2067V21.905C6.935 22.3483 7.08667 22.8033 7.40167 23.13L10.3417 26.7V27.1667H2V26.7L4.94 23.13C5.255 22.8033 5.395 22.3483 5.31333 21.905V9.53833H5.325Z" fill="white"/>
</svg>
