<svg width="32" height="32" viewBox="0 0 32 32" fill="none" xmlns="http://www.w3.org/2000/svg">
<path d="M30 6.72288C28.9698 7.18514 27.8627 7.49646 26.7007 7.63679C27.8872 6.91863 28.7983 5.78066 29.2265 4.42453C28.117 5.08962 26.8873 5.57311 25.5783 5.83373C24.5318 4.70519 23.0373 4 21.3853 4C17.6765 4 14.9512 7.49764 15.7888 11.1285C11.016 10.8868 6.78333 8.57547 3.9495 5.0625C2.4445 7.67217 3.169 11.0861 5.72633 12.8149C4.786 12.7842 3.89933 12.5236 3.12583 12.0884C3.06283 14.7783 4.97033 17.2948 7.733 17.855C6.9245 18.0766 6.039 18.1285 5.13833 17.954C5.86867 20.2606 7.98967 21.9387 10.505 21.9858C8.09 23.8998 5.04733 24.7547 2 24.3915C4.54217 26.0389 7.56267 27 10.806 27C21.4717 27 27.4975 17.895 27.1335 9.72877C28.2558 8.9092 29.23 7.88679 30 6.72288Z" fill="white"/>
</svg>
